<svg preserveAspectRatio="xMidYMid meet" viewBox="0 0 512.000000 512.000000" height="512.000000pt" width="512.000000pt" xmlns="http://www.w3.org/2000/svg" version="1.0">

<g stroke="none" fill="#3bb77e" transform="translate(0.000000,512.000000) scale(0.100000,-0.100000)">
<path d="M2625 4899 c-41 -12 -392 -364 -403 -404 -17 -59 0 -83 201 -282 171
-171 197 -193 226 -193 39 0 87 23 101 49 5 11 10 38 10 61 0 38 -6 48 -97
142 l-98 101 120 -6 c224 -12 466 -77 677 -182 514 -256 864 -716 980 -1286
20 -100 23 -142 23 -344 -1 -211 -3 -240 -28 -356 -80 -376 -274 -721 -543
-968 -32 -30 -76 -70 -96 -88 -53 -49 -56 -111 -8 -155 41 -38 93 -38 146 0
74 54 217 197 301 302 294 365 444 791 445 1260 0 419 -112 796 -340 1136
-298 445 -755 750 -1282 859 -69 14 -178 28 -242 32 -65 3 -118 8 -118 11 0 3
36 43 80 88 72 74 80 85 80 121 0 47 -22 81 -66 99 -18 8 -35 14 -36 13 -2 0
-16 -5 -33 -10z"></path>
<path d="M1279 4128 c-68 -48 -258 -243 -328 -336 -178 -236 -312 -523 -369
-794 -32 -150 -45 -272 -45 -438 1 -409 116 -790 341 -1126 299 -445 760 -753
1285 -859 71 -14 180 -29 243 -32 63 -3 114 -8 114 -11 0 -3 -36 -43 -80 -88
-72 -74 -80 -85 -80 -121 0 -47 22 -81 64 -98 61 -26 79 -14 279 184 124 123
190 196 195 216 17 59 0 83 -201 283 -190 189 -194 192 -236 192 -62 0 -101
-41 -101 -105 0 -45 3 -49 98 -147 l97 -101 -120 6 c-724 38 -1376 549 -1603
1258 -62 194 -77 300 -77 549 0 241 10 322 61 497 91 317 237 557 491 809 149
148 153 153 153 194 0 33 -6 48 -29 71 -41 41 -93 40 -152 -3z"></path>
<path d="M2356 3714 c-560 -101 -966 -586 -966 -1154 0 -648 522 -1170 1170
-1170 648 0 1170 522 1170 1170 0 319 -119 602 -349 830 -178 177 -380 282
-625 325 -108 18 -293 18 -400 -1z m389 -213 c190 -39 346 -122 483 -255 273
-264 362 -658 231 -1020 -87 -241 -305 -465 -543 -557 -136 -53 -252 -72 -391
-65 -188 8 -340 55 -482 148 -450 294 -577 889 -284 1334 214 325 613 493 986
415z"></path>
<path d="M2501 3284 c-32 -23 -51 -74 -51 -139 0 -43 -3 -55 -15 -55 -29 0
-116 -51 -156 -91 -120 -120 -119 -294 3 -406 54 -48 89 -67 228 -123 207 -83
242 -116 190 -182 -59 -76 -220 -79 -321 -8 -65 47 -135 42 -173 -11 -24 -34
-21 -93 7 -123 32 -37 130 -92 188 -107 l49 -13 0 -53 c0 -98 40 -153 111
-153 70 0 109 57 109 160 l0 46 62 28 c69 32 144 101 173 161 29 58 28 185 -2
240 -45 84 -110 128 -308 209 -190 77 -231 121 -170 182 73 73 207 72 318 -2
96 -63 187 -24 187 81 0 57 -94 129 -217 165 -43 13 -43 13 -43 62 0 93 -41
148 -110 148 -20 0 -46 -7 -59 -16z"></path>
</g>
</svg>
