<svg preserveAspectRatio="xMidYMid meet" viewBox="0 0 512.000000 512.000000" height="512.000000pt" width="512.000000pt" xmlns="http://www.w3.org/2000/svg" version="1.0">

<g stroke="none" fill="#3bb77e" transform="translate(0.000000,512.000000) scale(0.100000,-0.100000)">
<path d="M3350 4290 c-313 -125 -481 -197 -493 -211 -17 -21 -18 -57 -15 -603
l3 -581 27 -85 c67 -214 174 -379 327 -504 85 -70 612 -386 643 -386 13 0 120
58 238 129 l215 129 3 -501 c2 -276 0 -521 -3 -544 -8 -55 -56 -107 -112 -122
-29 -8 -543 -10 -1829 -9 -1715 3 -1790 4 -1819 21 -16 10 -39 31 -50 45 -20
27 -20 45 -23 1079 l-2 1053 1071 2 1071 3 24 28 c33 39 31 81 -5 118 l-29 29
-1066 0 -1066 0 0 134 c0 122 2 136 22 166 13 18 39 41 58 51 33 18 81 19
1043 19 l1009 0 29 29 c39 40 39 82 0 122 l-30 29 -1033 -2 -1033 -3 -55 -26
c-66 -31 -131 -94 -162 -157 l-23 -47 0 -1320 0 -1320 29 -53 c37 -66 92 -116
165 -151 l56 -26 1804 -3 c1194 -1 1823 1 1860 8 113 21 202 88 250 190 l26
55 3 614 3 614 64 64 c121 119 221 291 267 458 22 78 22 97 26 654 2 495 1
576 -12 596 -11 17 -135 71 -493 214 -264 105 -485 191 -493 191 -8 0 -229
-86 -490 -190z m903 -162 l407 -163 -3 -520 c-3 -576 -2 -564 -72 -712 -60
-127 -139 -226 -245 -308 -30 -23 -155 -102 -277 -175 l-223 -133 -197 118
c-109 65 -225 136 -258 159 -127 85 -224 197 -289 337 -71 150 -70 137 -73
714 l-3 520 402 162 c222 88 407 162 413 162 5 1 193 -72 418 -161z"></path>
<path d="M4155 3591 c-16 -10 -122 -112 -235 -225 l-205 -206 -102 102 c-91
91 -106 102 -138 102 -49 0 -89 -40 -89 -89 0 -33 13 -48 144 -180 152 -153
177 -168 227 -141 42 22 520 506 532 539 21 55 -26 117 -87 117 -9 0 -30 -9
-47 -19z"></path>
<path d="M858 1530 c-14 -11 -28 -32 -31 -47 -7 -37 17 -87 49 -102 17 -7 142
-11 405 -11 416 0 427 1 447 58 14 40 4 79 -26 102 -24 19 -41 20 -422 20
-381 0 -398 -1 -422 -20z"></path>
</g>
</svg>
