<svg preserveAspectRatio="xMidYMid meet" viewBox="0 0 512.000000 512.000000" height="512.000000pt" width="512.000000pt" xmlns="http://www.w3.org/2000/svg" version="1.0">

<g stroke="none" fill="#3bb77e" transform="translate(0.000000,512.000000) scale(0.100000,-0.100000)">
<path d="M559 4271 l-29 -29 0 -422 0 -422 29 -29 c39 -38 97 -40 138 -5 l28
24 5 354 5 353 1223 3 1222 2 0 -1240 0 -1240 -446 0 -446 0 -29 -29 c-41 -41
-41 -101 0 -142 l29 -29 677 0 677 0 29 29 c41 41 41 101 0 142 -29 29 -30 29
-155 29 l-126 0 0 1000 0 1000 420 0 420 0 340 -282 340 -281 0 -714 0 -713
-49 0 c-72 0 -108 -10 -135 -36 -32 -33 -38 -71 -18 -114 27 -55 49 -61 205
-58 l139 3 27 31 28 31 8 806 c5 595 4 815 -5 841 -9 28 -78 90 -377 338 -202
166 -380 313 -397 326 l-30 22 -458 0 -458 0 0 194 c0 112 -5 206 -11 224 -23
67 84 62 -1424 62 l-1367 0 -29 -29z"></path>
<path d="M3651 3326 c-50 -28 -50 -29 -51 -518 l0 -458 29 -32 29 -33 439 -3
c241 -2 452 0 469 3 18 3 44 17 58 32 l26 26 0 326 0 327 -27 31 c-41 45 -314
288 -340 301 -33 18 -600 16 -632 -2z m670 -302 l129 -116 0 -209 0 -209 -320
0 -320 0 0 325 0 325 191 0 191 0 129 -116z"></path>
<path d="M485 3238 c-36 -19 -55 -52 -55 -94 0 -32 6 -46 31 -70 l30 -29 632
-3 c348 -2 651 0 674 3 100 14 133 135 50 185 -31 19 -54 20 -687 20 -457 -1
-661 -4 -675 -12z"></path>
<path d="M293 2773 c-28 -5 -70 -47 -75 -76 -8 -40 11 -87 43 -106 27 -17 75
-18 673 -23 354 -3 655 -3 670 -1 14 3 37 17 51 30 50 51 22 153 -47 167 -27
6 -1283 14 -1315 9z"></path>
<path d="M70 2287 c-25 -8 -40 -23 -53 -49 -23 -46 -16 -86 19 -119 l26 -24
659 -3 c583 -2 664 -1 693 13 84 40 70 159 -22 185 -56 15 -1276 13 -1322 -3z"></path>
<path d="M559 1971 l-29 -29 0 -230 0 -230 31 -31 31 -31 194 0 194 0 31 28
c43 38 45 101 5 140 -25 26 -32 27 -154 32 l-127 5 -5 163 -5 164 -28 24 c-41
35 -99 33 -138 -5z"></path>
<path d="M1523 1735 c-85 -23 -153 -63 -214 -124 -218 -219 -172 -568 96 -729
135 -82 321 -83 461 -5 63 35 148 122 178 181 63 124 73 275 27 394 -45 117
-152 224 -268 268 -75 29 -208 36 -280 15z m206 -207 c39 -12 116 -79 136
-119 66 -126 19 -283 -105 -353 -166 -93 -382 32 -382 222 0 186 168 306 351
250z"></path>
<path d="M4055 1731 c-204 -61 -338 -240 -337 -453 1 -252 209 -458 463 -458
234 0 426 165 461 397 49 332 -267 609 -587 514z m264 -225 c112 -72 153 -212
97 -331 -92 -199 -364 -199 -469 -1 -30 57 -30 165 0 221 22 42 69 89 115 118
64 40 188 36 257 -7z"></path>
</g>
</svg>
